<?xml version="1.0" encoding="UTF-8" standalone="no"?>
<!-- Created with Inkscape (http://www.inkscape.org/) -->

<svg
   xmlns:dc="http://purl.org/dc/elements/1.1/"
   xmlns:cc="http://creativecommons.org/ns#"
   xmlns:rdf="http://www.w3.org/1999/02/22-rdf-syntax-ns#"
   xmlns:svg="http://www.w3.org/2000/svg"
   xmlns="http://www.w3.org/2000/svg"
   version="1.1"
   width="23.1472"
   height="27.7976"
   viewBox="0 0 649.58758 827.39556"
   id="Layer_1"
   xml:space="preserve"><metadata
     id="metadata3043"><rdf:RDF><cc:Work
         rdf:about=""><dc:format>image/svg+xml</dc:format><dc:type
           rdf:resource="http://purl.org/dc/dcmitype/StillImage" /><dc:title></dc:title></cc:Work></rdf:RDF></metadata><defs
     id="defs3041" /><g
     transform="translate(5.8305906,0)"
     id="g3901"><path
       d="M 663.45141,344.4882 C 663.45141,154.25413 509.19727,0 318.9632,0 128.72914,0 -25.525,154.25413 -25.525,344.4882 c 0,111.36873 52.91026,210.3314 134.87117,273.31414 L 318.9632,827.39556 528.55643,617.80234 C 610.54114,554.8196 663.45141,455.83311 663.45141,344.4882 z"
       id="path3110"
       style="fill:#4a4b4c" /><g
       transform="matrix(0.66972447,0,0,0.70032876,40.873404,87.840744)"
       id="g3035"
       style="stroke:none"><path
         d="m 640.3,177 c -11.6,0 -23.1,1.2 -34.1,3 C 578.2,89.2 492.9,23.4 391.2,23.4 267.5,23.4 167,121.5 167,242.7 c 0,11 0.6,21.3 2.4,31.7 -6.1,-0.6 -12.2,-1.2 -18.3,-1.2 -84.1,0 -152.3,67 -152.3,149.2 0,82.2 68.2,149.2 152.3,149.2 h 489.2 c 111.5,0 201.6,-88.3 201.6,-197.4 C 841.9,265.4 751.7,177 640.3,177 z"
         id="path3037"
         style="fill:#ffffff;stroke:none" /></g></g></svg>