<?xml version="1.0" encoding="UTF-8" standalone="no"?>
<!-- Created with Inkscape (http://www.inkscape.org/) -->

<svg
   xmlns:dc="http://purl.org/dc/elements/1.1/"
   xmlns:cc="http://creativecommons.org/ns#"
   xmlns:rdf="http://www.w3.org/1999/02/22-rdf-syntax-ns#"
   xmlns:svg="http://www.w3.org/2000/svg"
   xmlns="http://www.w3.org/2000/svg"
   version="1.1"
   width="23.1472"
   height="27.7976"
   id="map_icons">
  <metadata
     id="metadata4631">
    <rdf:RDF>
      <cc:Work
         rdf:about="">
        <dc:format>image/svg+xml</dc:format>
        <dc:type
           rdf:resource="http://purl.org/dc/dcmitype/StillImage" />
        <dc:title></dc:title>
      </cc:Work>
    </rdf:RDF>
  </metadata>
  <defs
     id="defs4629" />
  <path
     d="M 23.1472,11.5736 C 23.1472,5.1824 17.9648,0 11.5736,0 5.1824,0 0,5.1824 0,11.5736 0,15.3152 1.7776,18.64 4.5312,20.756 l 7.0424,7.0416 7.0416,-7.0416 c 2.7544,-2.116 4.532,-5.4416 4.532,-9.1824 z"
     id="path4623"
     style="fill:#4a4b4c" />
  <path
     d="m 17.865187,13.008101 c 0.02859,3.867826 -2.773072,7.025603 -6.256819,7.05211 C 8.1246226,20.086717 5.276592,16.971927 5.2480021,13.1041 5.2312658,10.839761 6.1853336,8.8202847 7.6768135,7.5283036 l 3.8072055,-4.2906409 3.86977,4.2322293 c 1.510846,1.2691367 2.494665,3.274353 2.511398,5.538209 z"
     id="path4623-2"
     style="fill:#34c0f6;fill-opacity:1" />
</svg>
