<?xml version="1.0" encoding="UTF-8" standalone="no"?>
<!-- Created with Inkscape (http://www.inkscape.org/) -->

<svg
   xmlns:dc="http://purl.org/dc/elements/1.1/"
   xmlns:cc="http://creativecommons.org/ns#"
   xmlns:rdf="http://www.w3.org/1999/02/22-rdf-syntax-ns#"
   xmlns:svg="http://www.w3.org/2000/svg"
   xmlns="http://www.w3.org/2000/svg"
   xmlns:sodipodi="http://sodipodi.sourceforge.net/DTD/sodipodi-0.dtd"
   xmlns:inkscape="http://www.inkscape.org/namespaces/inkscape"
   version="1.1"
   width="23.1472"
   height="27.7976"
   id="map_icons"
   inkscape:version="0.48.4 r9939"
   sodipodi:docname="os.svg"
   inkscape:export-filename="/home/roger/IdeaProjects/meta/webbapps/station-map/icons/os_line.png"
   inkscape:export-xdpi="90"
   inkscape:export-ydpi="90">
  <sodipodi:namedview
     pagecolor="#ffffff"
     bordercolor="#666666"
     borderopacity="1"
     objecttolerance="10"
     gridtolerance="10"
     guidetolerance="10"
     inkscape:pageopacity="0"
     inkscape:pageshadow="2"
     inkscape:window-width="1920"
     inkscape:window-height="1107"
     id="namedview2990"
     showgrid="false"
     inkscape:zoom="23.097424"
     inkscape:cx="23.571605"
     inkscape:cy="16.806738"
     inkscape:window-x="0"
     inkscape:window-y="28"
     inkscape:window-maximized="1"
     inkscape:current-layer="map_icons"
     fit-margin-top="0"
     fit-margin-left="0"
     fit-margin-right="0"
     fit-margin-bottom="0" />
  <metadata
     id="metadata4631">
    <rdf:RDF>
      <cc:Work
         rdf:about="">
        <dc:format>image/svg+xml</dc:format>
        <dc:type
           rdf:resource="http://purl.org/dc/dcmitype/StillImage" />
        <dc:title></dc:title>
      </cc:Work>
    </rdf:RDF>
  </metadata>
  <defs
     id="defs4629" />
  <path
     d="M 23.1472,11.5736 C 23.1472,5.1824 17.9648,0 11.5736,0 5.1824,0 0,5.1824 0,11.5736 0,15.3152 1.7776,18.64 4.5312,20.756 l 7.0424,7.0416 7.0416,-7.0416 c 2.7544,-2.116 4.532,-5.4416 4.532,-9.1824 z"
     id="path4623"
     style="fill:#4a4b4c"
     inkscape:connector-curvature="0" />
  <path
     style="fill:#34c0f6;fill-opacity:1"
     inkscape:connector-curvature="0"
     d="m 5.5107498,7.7900752 c 1.452071,-1.519394 2.603783,-2.720773 5.7274992,-0.585545 1.493496,1.034802 2.713567,1.418435 3.711997,1.418435 1.766927,0 2.904142,-1.201379 3.890141,-2.221037 0.356287,-0.365965 0.397718,-1.017134 0.09736,-1.451247 -0.302432,-0.4341127 -0.822359,-0.4997362 -1.178646,-0.133765 -1.452071,1.519388 -2.603783,2.720767 -5.727494,0.583022 -4.1242182,-2.8368706 -6.0547852,-0.815222 -7.6042162,0.802601 -0.356287,0.36849 -0.397712,1.017135 -0.09529,1.468909 0.302432,0.418969 0.822359,0.484592 1.178646,0.118627 z M 17.759101,9.9934442 C 16.30703,11.512832 15.155318,12.714211 12.031607,10.576466 7.9073888,7.7395962 5.9768218,9.7587202 4.4273908,11.379067 c -0.356287,0.36849 -0.397712,1.017135 -0.09529,1.451247 0.302432,0.434113 0.822359,0.49973 1.178646,0.133765 1.452071,-1.519388 2.603783,-2.720767 5.7274992,-0.583021 1.493496,1.034802 2.713567,1.418435 3.711997,1.418435 1.766927,0 2.904142,-1.201379 3.890141,-2.221037 0.356287,-0.368489 0.397718,-1.017134 0.09529,-1.451247 C 18.635315,9.6754282 18.115388,9.6249552 17.759101,9.9934442 z m 0,5.1740038 c -1.452071,1.519389 -2.603783,2.720767 -5.727494,0.585546 -4.1242182,-2.839394 -6.0547852,-0.817746 -7.6042162,0.800078 -0.356287,0.368489 -0.397712,1.017134 -0.09529,1.468914 0.302432,0.434113 0.822359,0.499731 1.178646,0.133765 1.452071,-1.519388 2.603783,-2.720767 5.7274992,-0.583021 1.493496,1.034802 2.69907,1.418435 3.711997,1.418435 1.766927,0 2.904142,-1.201379 3.890141,-2.221037 0.356287,-0.368489 0.397718,-1.017134 0.09529,-1.468915 -0.300359,-0.434106 -0.820286,-0.49973 -1.176573,-0.133765 z"
     id="path3030" />
</svg>
