<?xml version="1.0" encoding="UTF-8" standalone="no"?>
<!-- Created with Inkscape (http://www.inkscape.org/) -->

<svg
   xmlns:dc="http://purl.org/dc/elements/1.1/"
   xmlns:cc="http://creativecommons.org/ns#"
   xmlns:rdf="http://www.w3.org/1999/02/22-rdf-syntax-ns#"
   xmlns:svg="http://www.w3.org/2000/svg"
   xmlns="http://www.w3.org/2000/svg"
   version="1.1"
   width="66.50399"
   height="27.7976"
   id="map_icons">
  <metadata
     id="metadata4631">
    <rdf:RDF>
      <cc:Work
         rdf:about="">
        <dc:format>image/svg+xml</dc:format>
        <dc:type
           rdf:resource="http://purl.org/dc/dcmitype/StillImage" />
        <dc:title></dc:title>
      </cc:Work>
    </rdf:RDF>
  </metadata>
  <defs
     id="defs4629" />
  <path
     d="m 25.593385,24.858646 c 6.9756,-3.891568 7.806607,-30.21664 15.000907,-19.4093368 7.580395,12.4800688 16.15098,16.6142398 24.858646,19.5930218"
     id="path3814"
     style="fill:none;stroke:#00008b;stroke-width:2;stroke-linecap:round;stroke-linejoin:round;stroke-miterlimit:4;stroke-opacity:1;stroke-dasharray:none" />
  <g
     transform="translate(-81.310754,1.9727122)"
     id="g2997">
    <path
       d="m 104.44558,9.6115476 c 0,-6.3912 -5.182402,-11.5736 -11.573602,-11.5736 -6.3912,0 -11.5736,5.1824 -11.5736,11.5736 0,3.7416004 1.7776,7.0664004 4.5312,9.1824004 l 7.0424,7.0416 7.0416,-7.0416 c 2.754402,-2.116 4.532002,-5.4416 4.532002,-9.1824004 z"
       id="path4623-2"
       style="fill:#4a4b4c" />
    <g
       transform="translate(81.298378,-1.9620524)"
       id="g3773">
      <path
         d="m 11.468591,2.9350129 q 0.293136,0.9914616 0.802635,1.976038 0.509499,0.9845765 1.060874,1.790139 0.551376,0.8055626 1.158586,1.6248954 0.607211,0.8193329 1.151607,1.6111251 0.544396,0.7917926 0.977121,1.5973546 0.432725,0.805563 0.690964,1.735058 0.258239,0.929495 0.258239,1.879646 0,0.977691 -0.355951,1.85899 -0.355951,0.8813 -0.956183,1.528504 -0.600231,0.647204 -1.381928,1.129164 -0.781696,0.481961 -1.654126,0.743597 Q 12.348,20.671159 11.468591,20.72624 10.296046,20.657389 9.2142336,20.25805 8.1324211,19.858712 7.2669712,19.177082 6.4015213,18.495452 5.8850431,17.455794 5.3685649,16.416137 5.3685649,15.19058 q 0,-0.950151 0.2512596,-1.879646 Q 5.8710842,12.381439 6.3107886,11.568991 6.750493,10.756543 7.2809301,9.964751 7.8113671,9.1729588 8.418578,8.3467408 9.0257888,7.5205228 9.5841436,6.7080751 10.142498,5.8956274 10.651997,4.9041658 11.161496,3.9127042 11.468591,2.9350129 z M 8.5372284,10.990638 q -0.321054,0.45442 -0.6072109,0.970807 -0.2861568,0.516386 -0.5653342,1.411455 -0.2791774,0.89507 -0.2373008,1.693747 0.013959,0.509501 0.2024036,0.957036 0.1884448,0.447535 0.4187661,0.716056 0.2303214,0.26852 0.5723137,0.509501 0.3419923,0.24098 0.5374165,0.337372 0.1954242,0.09639 0.4606427,0.206555 0.2931363,0.09639 0.4466838,0.01377 0.1535476,-0.08262 0.1814654,-0.302947 L 10.030827,17.0358 Q 10.058745,16.898097 9.9959303,16.732853 9.9331154,16.56761 9.8074856,16.471218 9.7376912,16.416137 9.6120614,16.305974 9.4864315,16.195812 9.2002747,15.748277 8.9141179,15.300742 8.7466114,14.73616 q -0.3629306,-1.225557 0.083753,-3.731751 0.027918,-0.151474 -0.083753,-0.151474 -0.1116709,-0.01377 -0.209383,0.137703 z"
         id="path4-5"
         style="fill:#00bbed;fill-opacity:1" />
      <path
         d="m 8.5372284,10.990638 q -0.321054,0.45442 -0.6072109,0.970807 -0.2861568,0.516386 -0.5653342,1.411455 -0.2791774,0.89507 -0.2373008,1.693747 0.013959,0.509501 0.2024036,0.957036 0.1884448,0.447535 0.4187661,0.716056 0.2303214,0.26852 0.5723137,0.509501 0.3419923,0.24098 0.5374165,0.337372 0.1954242,0.09639 0.4606427,0.206555 0.2931363,0.09639 0.4466838,0.01377 0.1535476,-0.08262 0.1814654,-0.302947 L 10.030827,17.0358 Q 10.058745,16.898097 9.9959303,16.732853 9.9331154,16.56761 9.8074856,16.471218 9.7376912,16.416137 9.6120614,16.305974 9.4864315,16.195812 9.2002747,15.748277 8.9141179,15.300742 8.7466114,14.73616 q -0.3629306,-1.225557 0.083753,-3.731751 0.027918,-0.151474 -0.083753,-0.151474 -0.1116709,-0.01377 -0.209383,0.137703 z"
         id="path6"
         style="fill:#ffffff;fill-opacity:1" />
    </g>
  </g>
</svg>
